# Blender 4.2.0
# www.blender.org
mtllib BasicSword.mtl
o SwordMesh
v -1.300000 0.000000 0.200000
v -1.300000 0.000000 0.000000
v -1.300000 -0.000000 -0.200000
v -1.300000 0.100000 0.200000
v -1.300000 0.100000 -0.000000
v -1.300000 0.100000 -0.200000
v -1.100000 0.000000 0.300000
v -1.100000 0.000000 0.200000
v -1.100000 -0.000000 -0.200000
v -1.100000 -0.000000 -0.300000
v -1.100000 0.100000 0.300000
v -1.100000 0.100000 0.200000
v -1.100000 0.100000 -0.200000
v -1.100000 0.100000 -0.300000
v 0.400000 0.000000 0.600000
v 0.400000 0.000000 0.500000
v 0.400000 0.000000 0.200000
v 0.400000 -0.000000 -0.200000
v 0.400000 -0.000000 -0.600000
v 0.400000 0.100000 0.600000
v 0.400000 0.100000 0.500000
v 0.400000 0.100000 0.200000
v 0.400000 0.100000 -0.200000
v 0.400000 0.100000 -0.600000
v 0.500000 0.000000 0.700000
v 0.500000 0.000000 0.600000
v 0.500000 -0.000000 -0.600000
v 0.500000 -0.000000 -0.700000
v 0.500000 0.100000 0.700000
v 0.500000 0.100000 0.600000
v 0.500000 0.100000 -0.600000
v 0.500000 0.100000 -0.700000
v -0.900000 0.000000 0.300000
v -0.900000 0.000000 0.200000
v -0.900000 -0.000000 -0.200000
v -0.900000 -0.000000 -0.300000
v -0.900000 0.100000 0.300000
v -0.900000 0.100000 0.200000
v -0.900000 0.100000 -0.200000
v -0.900000 0.100000 -0.300000
v 0.800000 -0.000000 -0.600000
v 0.800000 -0.000000 -0.700000
v 0.800000 0.100000 -0.600000
v 0.800000 0.100000 -0.700000
v 0.900000 0.000000 0.700000
v 0.900000 0.000000 0.600000
v 0.900000 0.000000 0.400000
v 0.900000 0.000000 0.300000
v 0.900000 -0.000000 -0.300000
v 0.900000 -0.000000 -0.400000
v 0.900000 -0.000000 -0.500000
v 0.900000 -0.000000 -0.600000
v 0.900000 0.100000 0.700000
v 0.900000 0.100000 0.600000
v 0.900000 0.100000 0.400000
v 0.900000 0.100000 0.300000
v 0.900000 0.100000 -0.300000
v 0.900000 0.100000 -0.400000
v 0.900000 0.100000 -0.500000
v 0.900000 0.100000 -0.600000
v 1.000000 0.000000 0.600000
v 1.000000 0.000000 0.500000
v 1.000000 0.000000 0.400000
v 1.000000 -0.000000 -0.400000
v 1.000000 -0.000000 -0.500000
v 1.000000 0.100000 0.600000
v 1.000000 0.100000 0.500000
v 1.000000 0.100000 0.400000
v 1.000000 0.100000 -0.400000
v 1.000000 0.100000 -0.500000
v 4.000000 0.000000 0.300000
v 4.000000 0.000000 0.200000
v 4.000000 -0.000000 -0.200000
v 4.000000 -0.000000 -0.300000
v 4.000000 0.100000 0.300000
v 4.000000 0.100000 0.200000
v 4.000000 0.100000 -0.200000
v 4.000000 0.100000 -0.300000
v 4.100000 0.000000 0.200000
v 4.100000 0.000000 0.100000
v 4.100000 -0.000000 -0.100000
v 4.100000 -0.000000 -0.200000
v 4.100000 0.100000 0.200000
v 4.100000 0.100000 0.100000
v 4.100000 0.100000 -0.100000
v 4.100000 0.100000 -0.200000
v 4.200000 0.000000 0.100000
v 4.200000 -0.000000 -0.100000
v 4.200000 0.100000 0.100000
v 4.200000 0.100000 -0.100000
v 0.500000 0.000000 0.700000
v 0.500000 0.100000 0.700000
v 0.900000 0.000000 0.700000
v 0.900000 0.100000 0.700000
v 0.400000 0.000000 0.600000
v 0.400000 0.100000 0.600000
v 0.500000 0.000000 0.600000
v 0.500000 0.100000 0.600000
v 0.900000 0.000000 0.600000
v 0.900000 0.100000 0.600000
v 1.000000 0.000000 0.600000
v 1.000000 0.100000 0.600000
v -1.100000 0.000000 0.300000
v -1.100000 0.100000 0.300000
v -0.900000 0.000000 0.300000
v -0.900000 0.100000 0.300000
v 0.900000 0.000000 0.300000
v 0.900000 0.100000 0.300000
v 4.000000 0.000000 0.300000
v 4.000000 0.100000 0.300000
v -1.300000 0.000000 0.200000
v -1.300000 0.100000 0.200000
v -1.100000 0.000000 0.200000
v -1.100000 0.100000 0.200000
v -0.900000 0.000000 0.200000
v -0.900000 0.100000 0.200000
v 0.400000 0.000000 0.200000
v 0.400000 0.100000 0.200000
v 4.000000 0.000000 0.200000
v 4.000000 0.100000 0.200000
v 4.100000 0.000000 0.200000
v 4.100000 0.100000 0.200000
v 4.100000 0.000000 0.100000
v 4.100000 0.100000 0.100000
v 4.200000 0.000000 0.100000
v 4.200000 0.100000 0.100000
v 0.900000 -0.000000 -0.400000
v 0.900000 0.100000 -0.400000
v 1.000000 -0.000000 -0.400000
v 1.000000 0.100000 -0.400000
v 0.900000 0.000000 0.400000
v 0.900000 0.100000 0.400000
v 1.000000 0.000000 0.400000
v 1.000000 0.100000 0.400000
v 4.100000 -0.000000 -0.100000
v 4.100000 0.100000 -0.100000
v 4.200000 -0.000000 -0.100000
v 4.200000 0.100000 -0.100000
v -1.300000 -0.000000 -0.200000
v -1.300000 0.100000 -0.200000
v -1.100000 -0.000000 -0.200000
v -1.100000 0.100000 -0.200000
v -0.900000 -0.000000 -0.200000
v -0.900000 0.100000 -0.200000
v 0.200000 -0.000000 -0.200000
v 0.200000 0.100000 -0.200000
v 0.400000 -0.000000 -0.200000
v 0.400000 0.100000 -0.200000
v 4.000000 -0.000000 -0.200000
v 4.000000 0.100000 -0.200000
v 4.100000 -0.000000 -0.200000
v 4.100000 0.100000 -0.200000
v -1.100000 -0.000000 -0.300000
v -1.100000 0.100000 -0.300000
v -0.900000 -0.000000 -0.300000
v -0.900000 0.100000 -0.300000
v 0.900000 -0.000000 -0.300000
v 0.900000 0.100000 -0.300000
v 4.000000 -0.000000 -0.300000
v 4.000000 0.100000 -0.300000
v 0.900000 -0.000000 -0.500000
v 0.900000 0.100000 -0.500000
v 1.000000 -0.000000 -0.500000
v 1.000000 0.100000 -0.500000
v 0.400000 -0.000000 -0.600000
v 0.400000 0.100000 -0.600000
v 0.500000 -0.000000 -0.600000
v 0.500000 0.100000 -0.600000
v 0.800000 -0.000000 -0.600000
v 0.800000 0.100000 -0.600000
v 0.900000 -0.000000 -0.600000
v 0.900000 0.100000 -0.600000
v 0.500000 -0.000000 -0.700000
v 0.500000 0.100000 -0.700000
v 0.700000 -0.000000 -0.700000
v 0.700000 0.100000 -0.700000
v 0.800000 -0.000000 -0.700000
v 0.800000 0.100000 -0.700000
v 0.500000 0.000000 0.700000
v 0.900000 0.000000 0.700000
v 0.400000 0.000000 0.600000
v 0.500000 0.000000 0.600000
v 0.800000 0.000000 0.600000
v 0.900000 0.000000 0.600000
v 1.000000 0.000000 0.600000
v 0.400000 0.000000 0.500000
v 0.500000 0.000000 0.500000
v 0.800000 0.000000 0.500000
v 1.000000 0.000000 0.500000
v 0.600000 0.000000 0.400000
v 0.800000 0.000000 0.400000
v 0.900000 0.000000 0.400000
v 1.000000 0.000000 0.400000
v -1.100000 0.000000 0.300000
v -0.900000 0.000000 0.300000
v 0.800000 0.000000 0.300000
v 0.900000 0.000000 0.300000
v 4.000000 0.000000 0.300000
v -1.300000 0.000000 0.200000
v -1.100000 0.000000 0.200000
v -1.000000 0.000000 0.200000
v -0.900000 0.000000 0.200000
v 0.400000 0.000000 0.200000
v 0.500000 0.000000 0.200000
v 0.600000 0.000000 0.200000
v 0.700000 0.000000 0.200000
v 0.800000 0.000000 0.200000
v 4.000000 0.000000 0.200000
v 4.100000 0.000000 0.200000
v -1.200000 0.000000 0.100000
v -1.100000 0.000000 0.100000
v -0.800000 0.000000 0.100000
v -0.700000 0.000000 0.100000
v -0.600000 0.000000 0.100000
v -0.500000 0.000000 0.100000
v -0.300000 0.000000 0.100000
v -0.200000 0.000000 0.100000
v 0.000000 0.000000 0.100000
v 0.100000 0.000000 0.100000
v 0.300000 0.000000 0.100000
v 0.500000 0.000000 0.100000
v 0.600000 0.000000 0.100000
v 0.700000 0.000000 0.100000
v 0.800000 0.000000 0.100000
v 3.600000 0.000000 0.100000
v 4.000000 0.000000 0.100000
v 4.100000 0.000000 0.100000
v 4.200000 0.000000 0.100000
v -1.300000 0.000000 0.000000
v -1.200000 0.000000 0.000000
v -0.600000 0.000000 0.000000
v -0.500000 0.000000 0.000000
v -0.400000 0.000000 0.000000
v -0.300000 0.000000 0.000000
v -0.200000 0.000000 0.000000
v -0.100000 0.000000 0.000000
v 0.000000 0.000000 0.000000
v 0.100000 0.000000 0.000000
v 0.200000 0.000000 0.000000
v 0.400000 0.000000 0.000000
v 0.500000 0.000000 0.000000
v 0.800000 0.000000 0.000000
v 3.600000 0.000000 0.000000
v 3.700000 0.000000 0.000000
v 4.100000 0.000000 0.000000
v -1.200000 -0.000000 -0.100000
v -1.100000 -0.000000 -0.100000
v -0.900000 -0.000000 -0.100000
v -0.800000 -0.000000 -0.100000
v -0.700000 -0.000000 -0.100000
v -0.500000 -0.000000 -0.100000
v -0.400000 -0.000000 -0.100000
v -0.200000 -0.000000 -0.100000
v -0.100000 -0.000000 -0.100000
v 0.100000 -0.000000 -0.100000
v 0.200000 -0.000000 -0.100000
v 0.300000 -0.000000 -0.100000
v 0.400000 -0.000000 -0.100000
v 0.500000 -0.000000 -0.100000
v 0.600000 -0.000000 -0.100000
v 0.700000 -0.000000 -0.100000
v 0.800000 -0.000000 -0.100000
v 3.700000 -0.000000 -0.100000
v 4.000000 -0.000000 -0.100000
v 4.100000 -0.000000 -0.100000
v 4.200000 -0.000000 -0.100000
v -1.300000 -0.000000 -0.200000
v -1.100000 -0.000000 -0.200000
v -1.000000 -0.000000 -0.200000
v -0.900000 -0.000000 -0.200000
v 0.200000 -0.000000 -0.200000
v 0.400000 -0.000000 -0.200000
v 0.500000 -0.000000 -0.200000
v 0.800000 -0.000000 -0.200000
v 4.000000 -0.000000 -0.200000
v 4.100000 -0.000000 -0.200000
v -1.100000 -0.000000 -0.300000
v -0.900000 -0.000000 -0.300000
v 0.700000 -0.000000 -0.300000
v 0.900000 -0.000000 -0.300000
v 4.000000 -0.000000 -0.300000
v 0.600000 -0.000000 -0.400000
v 0.900000 -0.000000 -0.400000
v 1.000000 -0.000000 -0.400000
v 0.600000 -0.000000 -0.500000
v 0.800000 -0.000000 -0.500000
v 0.900000 -0.000000 -0.500000
v 1.000000 -0.000000 -0.500000
v 0.400000 -0.000000 -0.600000
v 0.500000 -0.000000 -0.600000
v 0.600000 -0.000000 -0.600000
v 0.700000 -0.000000 -0.600000
v 0.800000 -0.000000 -0.600000
v 0.900000 -0.000000 -0.600000
v 0.500000 -0.000000 -0.700000
v 0.700000 -0.000000 -0.700000
v 0.800000 -0.000000 -0.700000
v 0.500000 0.100000 0.700000
v 0.900000 0.100000 0.700000
v 0.400000 0.100000 0.600000
v 0.500000 0.100000 0.600000
v 0.800000 0.100000 0.600000
v 0.900000 0.100000 0.600000
v 1.000000 0.100000 0.600000
v 0.400000 0.100000 0.500000
v 0.500000 0.100000 0.500000
v 0.800000 0.100000 0.500000
v 1.000000 0.100000 0.500000
v 0.600000 0.100000 0.400000
v 0.800000 0.100000 0.400000
v 0.900000 0.100000 0.400000
v 1.000000 0.100000 0.400000
v -1.100000 0.100000 0.300000
v -0.900000 0.100000 0.300000
v 0.800000 0.100000 0.300000
v 0.900000 0.100000 0.300000
v 4.000000 0.100000 0.300000
v -1.300000 0.100000 0.200000
v -1.100000 0.100000 0.200000
v -1.000000 0.100000 0.200000
v -0.900000 0.100000 0.200000
v 0.400000 0.100000 0.200000
v 0.500000 0.100000 0.200000
v 0.600000 0.100000 0.200000
v 0.700000 0.100000 0.200000
v 0.800000 0.100000 0.200000
v 4.000000 0.100000 0.200000
v 4.100000 0.100000 0.200000
v -1.200000 0.100000 0.100000
v -1.100000 0.100000 0.100000
v -0.800000 0.100000 0.100000
v -0.700000 0.100000 0.100000
v -0.600000 0.100000 0.100000
v -0.500000 0.100000 0.100000
v -0.300000 0.100000 0.100000
v -0.200000 0.100000 0.100000
v 0.000000 0.100000 0.100000
v 0.100000 0.100000 0.100000
v 0.300000 0.100000 0.100000
v 0.500000 0.100000 0.100000
v 0.600000 0.100000 0.100000
v 0.700000 0.100000 0.100000
v 0.800000 0.100000 0.100000
v 3.600000 0.100000 0.100000
v 4.000000 0.100000 0.100000
v 4.100000 0.100000 0.100000
v 4.200000 0.100000 0.100000
v -1.300000 0.100000 -0.000000
v -1.200000 0.100000 -0.000000
v -0.600000 0.100000 -0.000000
v -0.500000 0.100000 -0.000000
v -0.400000 0.100000 -0.000000
v -0.300000 0.100000 -0.000000
v -0.200000 0.100000 -0.000000
v -0.100000 0.100000 -0.000000
v 0.000000 0.100000 -0.000000
v 0.100000 0.100000 -0.000000
v 0.200000 0.100000 -0.000000
v 0.400000 0.100000 -0.000000
v 0.500000 0.100000 -0.000000
v 0.800000 0.100000 -0.000000
v 3.600000 0.100000 -0.000000
v 3.700000 0.100000 -0.000000
v 4.100000 0.100000 -0.000000
v -1.200000 0.100000 -0.100000
v -1.100000 0.100000 -0.100000
v -0.900000 0.100000 -0.100000
v -0.800000 0.100000 -0.100000
v -0.700000 0.100000 -0.100000
v -0.500000 0.100000 -0.100000
v -0.400000 0.100000 -0.100000
v -0.200000 0.100000 -0.100000
v -0.100000 0.100000 -0.100000
v 0.100000 0.100000 -0.100000
v 0.200000 0.100000 -0.100000
v 0.300000 0.100000 -0.100000
v 0.400000 0.100000 -0.100000
v 0.500000 0.100000 -0.100000
v 0.600000 0.100000 -0.100000
v 0.700000 0.100000 -0.100000
v 0.800000 0.100000 -0.100000
v 3.700000 0.100000 -0.100000
v 4.000000 0.100000 -0.100000
v 4.100000 0.100000 -0.100000
v 4.200000 0.100000 -0.100000
v -1.300000 0.100000 -0.200000
v -1.100000 0.100000 -0.200000
v -1.000000 0.100000 -0.200000
v -0.900000 0.100000 -0.200000
v 0.200000 0.100000 -0.200000
v 0.400000 0.100000 -0.200000
v 0.500000 0.100000 -0.200000
v 0.800000 0.100000 -0.200000
v 4.000000 0.100000 -0.200000
v 4.100000 0.100000 -0.200000
v -1.100000 0.100000 -0.300000
v -0.900000 0.100000 -0.300000
v 0.700000 0.100000 -0.300000
v 0.900000 0.100000 -0.300000
v 4.000000 0.100000 -0.300000
v 0.600000 0.100000 -0.400000
v 0.900000 0.100000 -0.400000
v 1.000000 0.100000 -0.400000
v 0.600000 0.100000 -0.500000
v 0.800000 0.100000 -0.500000
v 0.900000 0.100000 -0.500000
v 1.000000 0.100000 -0.500000
v 0.400000 0.100000 -0.600000
v 0.500000 0.100000 -0.600000
v 0.600000 0.100000 -0.600000
v 0.700000 0.100000 -0.600000
v 0.800000 0.100000 -0.600000
v 0.900000 0.100000 -0.600000
v 0.500000 0.100000 -0.700000
v 0.700000 0.100000 -0.700000
v 0.800000 0.100000 -0.700000
vn -1.0000 -0.0000 -0.0000
vn 1.0000 -0.0000 -0.0000
vn -0.0000 -0.0000 1.0000
vn -0.0000 -0.0000 -1.0000
vn -0.0000 -1.0000 -0.0000
vn -0.0000 1.0000 -0.0000
vt 0.986328 0.500000
vt 0.982422 0.500000
vt 0.978516 0.500000
vt 0.505859 0.500000
vt 0.974609 0.500000
vt 0.958984 0.500000
vt 0.970703 0.500000
s 0
usemtl palette
f 4/1/1 2/1/1 1/1/1
f 5/2/1 3/2/1 2/2/1
f 5/1/1 2/1/1 4/1/1
f 6/2/1 3/2/1 5/2/1
f 11/1/1 8/1/1 7/1/1
f 12/1/1 8/1/1 11/1/1
f 13/2/1 10/2/1 9/2/1
f 14/2/1 10/2/1 13/2/1
f 20/1/1 16/1/1 15/1/1
f 21/2/1 17/2/1 16/2/1
f 21/1/1 16/1/1 20/1/1
f 22/2/1 17/2/1 21/2/1
f 23/2/1 19/2/1 18/2/1
f 24/2/1 19/2/1 23/2/1
f 29/1/1 26/1/1 25/1/1
f 30/1/1 26/1/1 29/1/1
f 31/3/1 28/3/1 27/3/1
f 32/3/1 28/3/1 31/3/1
f 33/1/2 34/1/2 37/1/2
f 37/1/2 34/1/2 38/1/2
f 35/2/2 36/2/2 39/2/2
f 39/2/2 36/2/2 40/2/2
f 41/2/2 42/2/2 43/2/2
f 43/2/2 42/2/2 44/2/2
f 45/1/2 46/1/2 53/1/2
f 53/1/2 46/1/2 54/1/2
f 47/1/2 48/1/2 55/1/2
f 55/1/2 48/1/2 56/1/2
f 49/1/2 50/1/2 57/1/2
f 57/1/2 50/1/2 58/1/2
f 51/2/2 52/2/2 59/2/2
f 59/2/2 52/2/2 60/2/2
f 61/1/2 62/1/2 66/1/2
f 62/2/2 63/2/2 67/2/2
f 66/1/2 62/1/2 67/1/2
f 67/2/2 63/2/2 68/2/2
f 64/2/2 65/2/2 69/2/2
f 69/2/2 65/2/2 70/2/2
f 71/4/2 72/4/2 75/4/2
f 75/4/2 72/4/2 76/4/2
f 73/4/2 74/4/2 77/4/2
f 77/4/2 74/4/2 78/4/2
f 79/4/2 80/4/2 83/4/2
f 83/4/2 80/4/2 84/4/2
f 81/4/2 82/4/2 85/4/2
f 85/4/2 82/4/2 86/4/2
f 87/4/2 88/4/2 89/4/2
f 89/4/2 88/4/2 90/4/2
f 93/1/3 92/1/3 91/1/3
f 94/1/3 92/1/3 93/1/3
f 97/1/3 96/1/3 95/1/3
f 98/1/3 96/1/3 97/1/3
f 101/1/3 100/1/3 99/1/3
f 102/1/3 100/1/3 101/1/3
f 105/1/3 104/1/3 103/1/3
f 106/1/3 104/1/3 105/1/3
f 109/4/3 108/4/3 107/4/3
f 110/4/3 108/4/3 109/4/3
f 113/1/3 112/1/3 111/1/3
f 114/1/3 112/1/3 113/1/3
f 117/1/3 116/1/3 115/1/3
f 118/1/3 116/1/3 117/1/3
f 121/4/3 120/4/3 119/4/3
f 122/4/3 120/4/3 121/4/3
f 125/4/3 124/4/3 123/4/3
f 126/4/3 124/4/3 125/4/3
f 129/2/3 128/2/3 127/2/3
f 130/2/3 128/2/3 129/2/3
f 131/2/4 132/2/4 133/2/4
f 133/2/4 132/2/4 134/2/4
f 135/4/4 136/4/4 137/4/4
f 137/4/4 136/4/4 138/4/4
f 139/2/4 140/2/4 141/2/4
f 141/2/4 140/2/4 142/2/4
f 143/2/4 144/2/4 145/2/4
f 145/2/4 144/2/4 146/2/4
f 145/1/4 146/1/4 147/1/4
f 147/1/4 146/1/4 148/1/4
f 149/4/4 150/4/4 151/4/4
f 151/4/4 150/4/4 152/4/4
f 153/2/4 154/2/4 155/2/4
f 155/2/4 154/2/4 156/2/4
f 157/4/4 158/4/4 159/4/4
f 159/4/4 158/4/4 160/4/4
f 161/2/4 162/2/4 163/2/4
f 163/2/4 162/2/4 164/2/4
f 165/2/4 166/2/4 167/2/4
f 167/2/4 166/2/4 168/2/4
f 169/2/4 170/2/4 171/2/4
f 171/2/4 170/2/4 172/2/4
f 173/3/4 174/3/4 175/3/4
f 175/3/4 174/3/4 176/3/4
f 175/2/4 176/2/4 177/2/4
f 177/2/4 176/2/4 178/2/4
f 182/1/5 180/1/5 179/1/5
f 183/1/5 180/1/5 182/1/5
f 184/1/5 180/1/5 183/1/5
f 186/1/5 182/1/5 181/1/5
f 187/2/5 183/2/5 182/2/5
f 187/1/5 182/1/5 186/1/5
f 188/1/5 185/1/5 184/1/5
f 188/2/5 183/2/5 187/2/5
f 188/1/5 184/1/5 183/1/5
f 189/1/5 185/1/5 188/1/5
f 190/3/5 188/3/5 187/3/5
f 191/2/5 189/2/5 188/2/5
f 191/3/5 188/3/5 190/3/5
f 192/2/5 189/2/5 191/2/5
f 193/2/5 189/2/5 192/2/5
f 196/1/5 191/1/5 190/1/5
f 196/1/5 192/1/5 191/1/5
f 197/1/5 192/1/5 196/1/5
f 200/1/5 195/1/5 194/1/5
f 201/1/5 195/1/5 200/1/5
f 202/1/5 195/1/5 201/1/5
f 203/2/5 187/2/5 186/2/5
f 204/3/5 190/3/5 187/3/5
f 204/2/5 187/2/5 203/2/5
f 205/1/5 196/1/5 190/1/5
f 205/3/5 190/3/5 204/3/5
f 206/1/5 196/1/5 205/1/5
f 207/4/5 197/4/5 196/4/5
f 207/1/5 196/1/5 206/1/5
f 207/4/5 198/4/5 197/4/5
f 208/4/5 198/4/5 207/4/5
f 210/1/5 200/1/5 199/1/5
f 211/2/5 201/2/5 200/2/5
f 211/1/5 200/1/5 210/1/5
f 212/1/5 203/1/5 202/1/5
f 212/1/5 204/1/5 203/1/5
f 213/1/5 204/1/5 212/1/5
f 214/1/5 204/1/5 213/1/5
f 215/1/5 204/1/5 214/1/5
f 216/1/5 204/1/5 215/1/5
f 217/1/5 204/1/5 216/1/5
f 218/1/5 204/1/5 217/1/5
f 219/1/5 204/1/5 218/1/5
f 220/1/5 204/1/5 219/1/5
f 221/2/5 205/2/5 204/2/5
f 221/1/5 204/1/5 220/1/5
f 222/1/5 206/1/5 205/1/5
f 222/2/5 205/2/5 221/2/5
f 223/4/5 207/4/5 206/4/5
f 223/1/5 206/1/5 222/1/5
f 224/5/5 208/5/5 207/5/5
f 224/4/5 207/4/5 223/4/5
f 225/5/5 208/5/5 224/5/5
f 226/4/5 209/4/5 208/4/5
f 226/5/5 208/5/5 225/5/5
f 227/4/5 209/4/5 226/4/5
f 229/1/5 210/1/5 199/1/5
f 230/3/5 211/3/5 210/3/5
f 230/1/5 210/1/5 229/1/5
f 231/3/5 214/3/5 213/3/5
f 231/2/5 215/2/5 214/2/5
f 232/3/5 216/3/5 215/3/5
f 232/2/5 215/2/5 231/2/5
f 233/3/5 216/3/5 232/3/5
f 234/2/5 217/2/5 216/2/5
f 234/3/5 216/3/5 233/3/5
f 235/3/5 218/3/5 217/3/5
f 235/2/5 217/2/5 234/2/5
f 236/3/5 218/3/5 235/3/5
f 237/2/5 219/2/5 218/2/5
f 237/3/5 218/3/5 236/3/5
f 238/3/5 220/3/5 219/3/5
f 238/2/5 219/2/5 237/2/5
f 239/3/5 220/3/5 238/3/5
f 240/1/5 221/1/5 220/1/5
f 240/1/5 222/1/5 221/1/5
f 240/1/5 223/1/5 222/1/5
f 241/1/5 223/1/5 240/1/5
f 242/6/5 225/6/5 224/6/5
f 242/5/5 224/5/5 223/5/5
f 243/5/5 226/5/5 225/5/5
f 243/6/5 225/6/5 242/6/5
f 243/5/5 227/5/5 226/5/5
f 244/5/5 227/5/5 243/5/5
f 245/4/5 228/4/5 227/4/5
f 245/5/5 227/5/5 244/5/5
f 246/3/5 211/3/5 230/3/5
f 246/2/5 230/2/5 229/2/5
f 247/2/5 201/2/5 211/2/5
f 247/3/5 211/3/5 246/3/5
f 248/3/5 202/3/5 201/3/5
f 248/1/5 212/1/5 202/1/5
f 249/2/5 213/2/5 212/2/5
f 249/1/5 212/1/5 248/1/5
f 250/3/5 231/3/5 213/3/5
f 250/2/5 213/2/5 249/2/5
f 250/3/5 232/3/5 231/3/5
f 251/2/5 233/2/5 232/2/5
f 251/3/5 232/3/5 250/3/5
f 252/3/5 234/3/5 233/3/5
f 252/2/5 233/2/5 251/2/5
f 252/3/5 235/3/5 234/3/5
f 253/2/5 236/2/5 235/2/5
f 253/3/5 235/3/5 252/3/5
f 254/3/5 237/3/5 236/3/5
f 254/2/5 236/2/5 253/2/5
f 254/3/5 238/3/5 237/3/5
f 255/2/5 239/2/5 238/2/5
f 255/3/5 238/3/5 254/3/5
f 256/3/5 220/3/5 239/3/5
f 256/2/5 239/2/5 255/2/5
f 257/1/5 240/1/5 220/1/5
f 257/3/5 220/3/5 256/3/5
f 258/4/5 241/4/5 240/4/5
f 258/1/5 240/1/5 257/1/5
f 259/1/5 223/1/5 241/1/5
f 259/4/5 241/4/5 258/4/5
f 260/1/5 223/1/5 259/1/5
f 261/5/5 242/5/5 223/5/5
f 261/1/5 223/1/5 260/1/5
f 262/4/5 244/4/5 243/4/5
f 262/5/5 242/5/5 261/5/5
f 262/4/5 243/4/5 242/4/5
f 263/6/5 245/6/5 244/6/5
f 263/4/5 244/4/5 262/4/5
f 264/6/5 245/6/5 263/6/5
f 265/4/5 228/4/5 245/4/5
f 265/6/5 245/6/5 264/6/5
f 266/4/5 228/4/5 265/4/5
f 267/2/5 246/2/5 229/2/5
f 267/2/5 247/2/5 246/2/5
f 268/2/5 201/2/5 247/2/5
f 268/2/5 247/2/5 267/2/5
f 269/3/5 248/3/5 201/3/5
f 269/2/5 201/2/5 268/2/5
f 270/2/5 255/2/5 254/2/5
f 270/3/5 248/3/5 269/3/5
f 270/2/5 253/2/5 252/2/5
f 270/2/5 254/2/5 253/2/5
f 270/2/5 256/2/5 255/2/5
f 270/2/5 249/2/5 248/2/5
f 270/2/5 250/2/5 249/2/5
f 270/2/5 252/2/5 251/2/5
f 270/2/5 251/2/5 250/2/5
f 271/1/5 258/1/5 257/1/5
f 271/2/5 256/2/5 270/2/5
f 271/1/5 259/1/5 258/1/5
f 271/1/5 257/1/5 256/1/5
f 272/1/5 259/1/5 271/1/5
f 273/3/5 260/3/5 259/3/5
f 273/1/5 259/1/5 272/1/5
f 274/6/5 263/6/5 262/6/5
f 274/4/5 262/4/5 261/4/5
f 274/6/5 264/6/5 263/6/5
f 275/4/5 265/4/5 264/4/5
f 275/6/5 264/6/5 274/6/5
f 276/4/5 265/4/5 275/4/5
f 277/2/5 269/2/5 268/2/5
f 277/2/5 270/2/5 269/2/5
f 278/2/5 270/2/5 277/2/5
f 279/4/5 275/4/5 274/4/5
f 279/1/5 261/1/5 260/1/5
f 279/4/5 274/4/5 261/4/5
f 280/4/5 275/4/5 279/4/5
f 281/4/5 275/4/5 280/4/5
f 282/3/5 260/3/5 273/3/5
f 282/1/5 280/1/5 279/1/5
f 282/1/5 279/1/5 260/1/5
f 283/1/5 280/1/5 282/1/5
f 285/3/5 282/3/5 273/3/5
f 285/3/5 283/3/5 282/3/5
f 286/3/5 283/3/5 285/3/5
f 287/2/5 284/2/5 283/2/5
f 287/3/5 283/3/5 286/3/5
f 288/2/5 284/2/5 287/2/5
f 289/2/5 273/2/5 272/2/5
f 290/3/5 285/3/5 273/3/5
f 290/2/5 273/2/5 289/2/5
f 291/7/5 286/7/5 285/7/5
f 291/3/5 285/3/5 290/3/5
f 292/7/5 286/7/5 291/7/5
f 293/2/5 287/2/5 286/2/5
f 293/7/5 286/7/5 292/7/5
f 294/2/5 287/2/5 293/2/5
f 295/3/5 292/3/5 291/3/5
f 295/3/5 291/3/5 290/3/5
f 296/2/5 293/2/5 292/2/5
f 296/3/5 292/3/5 295/3/5
f 297/2/5 293/2/5 296/2/5
f 298/1/6 299/1/6 301/1/6
f 301/1/6 299/1/6 302/1/6
f 302/1/6 299/1/6 303/1/6
f 300/1/6 301/1/6 305/1/6
f 301/2/6 302/2/6 306/2/6
f 305/1/6 301/1/6 306/1/6
f 303/1/6 304/1/6 307/1/6
f 306/2/6 302/2/6 307/2/6
f 302/1/6 303/1/6 307/1/6
f 307/1/6 304/1/6 308/1/6
f 306/3/6 307/3/6 309/3/6
f 307/2/6 308/2/6 310/2/6
f 309/3/6 307/3/6 310/3/6
f 310/2/6 308/2/6 311/2/6
f 311/2/6 308/2/6 312/2/6
f 309/1/6 310/1/6 315/1/6
f 310/1/6 311/1/6 315/1/6
f 315/1/6 311/1/6 316/1/6
f 313/1/6 314/1/6 319/1/6
f 319/1/6 314/1/6 320/1/6
f 320/1/6 314/1/6 321/1/6
f 305/2/6 306/2/6 322/2/6
f 306/3/6 309/3/6 323/3/6
f 322/2/6 306/2/6 323/2/6
f 309/1/6 315/1/6 324/1/6
f 323/3/6 309/3/6 324/3/6
f 324/1/6 315/1/6 325/1/6
f 315/4/6 316/4/6 326/4/6
f 325/1/6 315/1/6 326/1/6
f 316/4/6 317/4/6 326/4/6
f 326/4/6 317/4/6 327/4/6
f 318/1/6 319/1/6 329/1/6
f 319/2/6 320/2/6 330/2/6
f 329/1/6 319/1/6 330/1/6
f 321/1/6 322/1/6 331/1/6
f 322/1/6 323/1/6 331/1/6
f 331/1/6 323/1/6 332/1/6
f 332/1/6 323/1/6 333/1/6
f 333/1/6 323/1/6 334/1/6
f 334/1/6 323/1/6 335/1/6
f 335/1/6 323/1/6 336/1/6
f 336/1/6 323/1/6 337/1/6
f 337/1/6 323/1/6 338/1/6
f 338/1/6 323/1/6 339/1/6
f 323/2/6 324/2/6 340/2/6
f 339/1/6 323/1/6 340/1/6
f 324/1/6 325/1/6 341/1/6
f 340/2/6 324/2/6 341/2/6
f 325/4/6 326/4/6 342/4/6
f 341/1/6 325/1/6 342/1/6
f 326/5/6 327/5/6 343/5/6
f 342/4/6 326/4/6 343/4/6
f 343/5/6 327/5/6 344/5/6
f 327/4/6 328/4/6 345/4/6
f 344/5/6 327/5/6 345/5/6
f 345/4/6 328/4/6 346/4/6
f 318/1/6 329/1/6 348/1/6
f 329/3/6 330/3/6 349/3/6
f 348/1/6 329/1/6 349/1/6
f 332/3/6 333/3/6 350/3/6
f 333/2/6 334/2/6 350/2/6
f 334/3/6 335/3/6 351/3/6
f 350/2/6 334/2/6 351/2/6
f 351/3/6 335/3/6 352/3/6
f 335/2/6 336/2/6 353/2/6
f 352/3/6 335/3/6 353/3/6
f 336/3/6 337/3/6 354/3/6
f 353/2/6 336/2/6 354/2/6
f 354/3/6 337/3/6 355/3/6
f 337/2/6 338/2/6 356/2/6
f 355/3/6 337/3/6 356/3/6
f 338/3/6 339/3/6 357/3/6
f 356/2/6 338/2/6 357/2/6
f 357/3/6 339/3/6 358/3/6
f 339/1/6 340/1/6 359/1/6
f 340/1/6 341/1/6 359/1/6
f 341/1/6 342/1/6 359/1/6
f 359/1/6 342/1/6 360/1/6
f 343/6/6 344/6/6 361/6/6
f 342/5/6 343/5/6 361/5/6
f 344/5/6 345/5/6 362/5/6
f 361/6/6 344/6/6 362/6/6
f 345/5/6 346/5/6 362/5/6
f 362/5/6 346/5/6 363/5/6
f 346/4/6 347/4/6 364/4/6
f 363/5/6 346/5/6 364/5/6
f 349/3/6 330/3/6 365/3/6
f 348/2/6 349/2/6 365/2/6
f 330/2/6 320/2/6 366/2/6
f 365/3/6 330/3/6 366/3/6
f 320/3/6 321/3/6 367/3/6
f 321/1/6 331/1/6 367/1/6
f 331/2/6 332/2/6 368/2/6
f 367/1/6 331/1/6 368/1/6
f 332/3/6 350/3/6 369/3/6
f 368/2/6 332/2/6 369/2/6
f 350/3/6 351/3/6 369/3/6
f 351/2/6 352/2/6 370/2/6
f 369/3/6 351/3/6 370/3/6
f 352/3/6 353/3/6 371/3/6
f 370/2/6 352/2/6 371/2/6
f 353/3/6 354/3/6 371/3/6
f 354/2/6 355/2/6 372/2/6
f 371/3/6 354/3/6 372/3/6
f 355/3/6 356/3/6 373/3/6
f 372/2/6 355/2/6 373/2/6
f 356/3/6 357/3/6 373/3/6
f 357/2/6 358/2/6 374/2/6
f 373/3/6 357/3/6 374/3/6
f 358/3/6 339/3/6 375/3/6
f 374/2/6 358/2/6 375/2/6
f 339/1/6 359/1/6 376/1/6
f 375/3/6 339/3/6 376/3/6
f 359/4/6 360/4/6 377/4/6
f 376/1/6 359/1/6 377/1/6
f 360/1/6 342/1/6 378/1/6
f 377/4/6 360/4/6 378/4/6
f 378/1/6 342/1/6 379/1/6
f 342/5/6 361/5/6 380/5/6
f 379/1/6 342/1/6 380/1/6
f 362/4/6 363/4/6 381/4/6
f 380/5/6 361/5/6 381/5/6
f 361/4/6 362/4/6 381/4/6
f 363/6/6 364/6/6 382/6/6
f 381/4/6 363/4/6 382/4/6
f 382/6/6 364/6/6 383/6/6
f 364/4/6 347/4/6 384/4/6
f 383/6/6 364/6/6 384/6/6
f 384/4/6 347/4/6 385/4/6
f 348/2/6 365/2/6 386/2/6
f 365/2/6 366/2/6 386/2/6
f 366/2/6 320/2/6 387/2/6
f 386/2/6 366/2/6 387/2/6
f 320/3/6 367/3/6 388/3/6
f 387/2/6 320/2/6 388/2/6
f 373/2/6 374/2/6 389/2/6
f 388/3/6 367/3/6 389/3/6
f 371/2/6 372/2/6 389/2/6
f 372/2/6 373/2/6 389/2/6
f 374/2/6 375/2/6 389/2/6
f 367/2/6 368/2/6 389/2/6
f 368/2/6 369/2/6 389/2/6
f 370/2/6 371/2/6 389/2/6
f 369/2/6 370/2/6 389/2/6
f 376/1/6 377/1/6 390/1/6
f 389/2/6 375/2/6 390/2/6
f 377/1/6 378/1/6 390/1/6
f 375/1/6 376/1/6 390/1/6
f 390/1/6 378/1/6 391/1/6
f 378/3/6 379/3/6 392/3/6
f 391/1/6 378/1/6 392/1/6
f 381/6/6 382/6/6 393/6/6
f 380/4/6 381/4/6 393/4/6
f 382/6/6 383/6/6 393/6/6
f 383/4/6 384/4/6 394/4/6
f 393/6/6 383/6/6 394/6/6
f 394/4/6 384/4/6 395/4/6
f 387/2/6 388/2/6 396/2/6
f 388/2/6 389/2/6 396/2/6
f 396/2/6 389/2/6 397/2/6
f 393/4/6 394/4/6 398/4/6
f 379/1/6 380/1/6 398/1/6
f 380/4/6 393/4/6 398/4/6
f 398/4/6 394/4/6 399/4/6
f 399/4/6 394/4/6 400/4/6
f 392/3/6 379/3/6 401/3/6
f 398/1/6 399/1/6 401/1/6
f 379/1/6 398/1/6 401/1/6
f 401/1/6 399/1/6 402/1/6
f 392/3/6 401/3/6 404/3/6
f 401/3/6 402/3/6 404/3/6
f 404/3/6 402/3/6 405/3/6
f 402/2/6 403/2/6 406/2/6
f 405/3/6 402/3/6 406/3/6
f 406/2/6 403/2/6 407/2/6
f 391/2/6 392/2/6 408/2/6
f 392/3/6 404/3/6 409/3/6
f 408/2/6 392/2/6 409/2/6
f 404/7/6 405/7/6 410/7/6
f 409/3/6 404/3/6 410/3/6
f 410/7/6 405/7/6 411/7/6
f 405/2/6 406/2/6 412/2/6
f 411/7/6 405/7/6 412/7/6
f 412/2/6 406/2/6 413/2/6
f 410/3/6 411/3/6 414/3/6
f 409/3/6 410/3/6 414/3/6
f 411/2/6 412/2/6 415/2/6
f 414/3/6 411/3/6 415/3/6
f 415/2/6 412/2/6 416/2/6
