# MagicaVoxel @ Ephtracy

# group
o GeneralKeySprite

# material
mtllib Key.mtl
usemtl palette

# normals
vn -1 0 0
vn 1 0 0
vn 0 0 1
vn 0 0 -1
vn 0 -1 0
vn 0 1 0

# texcoords
vt 0.0371094 0.5
vt 0.0644531 0.5
vt 0.0683594 0.5
vt 0.0917969 0.5
vt 0.232422 0.5

# verts
v -0.3 0 -0.4
v -0.3 0 -0.6
v -0.3 0.1 -0.4
v -0.3 0.1 -0.6
v -0.2 0 -0.3
v -0.2 0 -0.4
v -0.2 0 -0.6
v -0.2 0 -0.7
v -0.2 0.1 -0.3
v -0.2 0.1 -0.4
v -0.2 0.1 -0.6
v -0.2 0.1 -0.7
v -0.1 0 0.7
v -0.1 0 0.6
v -0.1 0 -0.2
v -0.1 0 -0.3
v -0.1 0 -0.7
v -0.1 0 -0.8
v -0.1 0.1 0.7
v -0.1 0.1 0.6
v -0.1 0.1 -0.2
v -0.1 0.1 -0.3
v -0.1 0.1 -0.7
v -0.1 0.1 -0.8
v 0.1 0 -0.4
v 0.1 0 -0.6
v 0.1 0.1 -0.4
v 0.1 0.1 -0.6
v -0.1 0 -0.4
v -0.1 0 -0.6
v -0.1 0.1 -0.4
v -0.1 0.1 -0.6
v 0.1 0 0.7
v 0.1 0 0.6
v 0.1 0 0.1
v 0.1 0 -0.2
v 0.1 0 -0.3
v 0.1 0 -0.7
v 0.1 0 -0.8
v 0.1 0.1 0.7
v 0.1 0.1 0.6
v 0.1 0.1 0.1
v 0.1 0.1 -0.2
v 0.1 0.1 -0.3
v 0.1 0.1 -0.7
v 0.1 0.1 -0.8
v 0.2 0 -0.3
v 0.2 0 -0.4
v 0.2 0 -0.6
v 0.2 0 -0.7
v 0.2 0.1 -0.3
v 0.2 0.1 -0.4
v 0.2 0.1 -0.6
v 0.2 0.1 -0.7
v 0.3 0 0.5
v 0.3 0 0.4
v 0.3 0 0.3
v 0.3 0 0.2
v 0.3 0 -0.4
v 0.3 0 -0.5
v 0.3 0 -0.6
v 0.3 0.1 0.5
v 0.3 0.1 0.4
v 0.3 0.1 0.3
v 0.3 0.1 0.2
v 0.3 0.1 -0.4
v 0.3 0.1 -0.5
v 0.3 0.1 -0.6
v 0.4 0 0.6
v 0.4 0 0.5
v 0.4 0 0.4
v 0.4 0 0.3
v 0.4 0 0.2
v 0.4 0 0.1
v 0.4 0.1 0.6
v 0.4 0.1 0.5
v 0.4 0.1 0.4
v 0.4 0.1 0.3
v 0.4 0.1 0.2
v 0.4 0.1 0.1
v -0.1 0 0.7
v -0.1 0.1 0.7
v 0 0 0.7
v 0 0.1 0.7
v 0.1 0 0.7
v 0.1 0.1 0.7
v 0.1 0 0.6
v 0.1 0.1 0.6
v 0.2 0 0.6
v 0.2 0.1 0.6
v 0.3 0 0.6
v 0.3 0.1 0.6
v 0.4 0 0.6
v 0.4 0.1 0.6
v 0.3 0 0.4
v 0.3 0.1 0.4
v 0.4 0 0.4
v 0.4 0.1 0.4
v 0.3 0 0.2
v 0.3 0.1 0.2
v 0.4 0 0.2
v 0.4 0.1 0.2
v -0.2 0 -0.3
v -0.2 0.1 -0.3
v -0.1 0 -0.3
v -0.1 0.1 -0.3
v 0.1 0 -0.3
v 0.1 0.1 -0.3
v 0.2 0 -0.3
v 0.2 0.1 -0.3
v -0.3 0 -0.4
v -0.3 0.1 -0.4
v -0.2 0 -0.4
v -0.2 0.1 -0.4
v 0.2 0 -0.4
v 0.2 0.1 -0.4
v 0.3 0 -0.4
v 0.3 0.1 -0.4
v -0.1 0 -0.6
v -0.1 0.1 -0.6
v 0 0 -0.6
v 0 0.1 -0.6
v 0.1 0 -0.6
v 0.1 0.1 -0.6
v 0.3 0 0.5
v 0.3 0.1 0.5
v 0.4 0 0.5
v 0.4 0.1 0.5
v 0.3 0 0.3
v 0.3 0.1 0.3
v 0.4 0 0.3
v 0.4 0.1 0.3
v 0.1 0 0.1
v 0.1 0.1 0.1
v 0.2 0 0.1
v 0.2 0.1 0.1
v 0.3 0 0.1
v 0.3 0.1 0.1
v 0.4 0 0.1
v 0.4 0.1 0.1
v -0.1 0 -0.4
v -0.1 0.1 -0.4
v 0 0 -0.4
v 0 0.1 -0.4
v 0.1 0 -0.4
v 0.1 0.1 -0.4
v -0.3 0 -0.6
v -0.3 0.1 -0.6
v -0.2 0 -0.6
v -0.2 0.1 -0.6
v 0.2 0 -0.6
v 0.2 0.1 -0.6
v 0.3 0 -0.6
v 0.3 0.1 -0.6
v -0.2 0 -0.7
v -0.2 0.1 -0.7
v -0.1 0 -0.7
v -0.1 0.1 -0.7
v 0.1 0 -0.7
v 0.1 0.1 -0.7
v 0.2 0 -0.7
v 0.2 0.1 -0.7
v -0.1 0 -0.8
v -0.1 0.1 -0.8
v 0 0 -0.8
v 0 0.1 -0.8
v 0.1 0 -0.8
v 0.1 0.1 -0.8
v -0.1 0 0.7
v 0 0 0.7
v 0.1 0 0.7
v -0.1 0 0.6
v 0 0 0.6
v 0.1 0 0.6
v 0.2 0 0.6
v 0.3 0 0.6
v 0.4 0 0.6
v 0.3 0 0.5
v 0.4 0 0.5
v 0.3 0 0.4
v 0.4 0 0.4
v 0.3 0 0.3
v 0.4 0 0.3
v 0.3 0 0.2
v 0.4 0 0.2
v 0.1 0 0.1
v 0.2 0 0.1
v 0.3 0 0.1
v 0.4 0 0.1
v -0.1 0 -0.2
v 0 0 -0.2
v 0.1 0 -0.2
v -0.2 0 -0.3
v -0.1 0 -0.3
v 0 0 -0.3
v 0.1 0 -0.3
v 0.2 0 -0.3
v -0.3 0 -0.4
v -0.2 0 -0.4
v -0.1 0 -0.4
v 0 0 -0.4
v 0.1 0 -0.4
v 0.2 0 -0.4
v 0.3 0 -0.4
v 0.2 0 -0.5
v 0.3 0 -0.5
v -0.3 0 -0.6
v -0.2 0 -0.6
v -0.1 0 -0.6
v 0 0 -0.6
v 0.1 0 -0.6
v 0.2 0 -0.6
v 0.3 0 -0.6
v -0.2 0 -0.7
v -0.1 0 -0.7
v 0 0 -0.7
v 0.1 0 -0.7
v 0.2 0 -0.7
v -0.1 0 -0.8
v 0 0 -0.8
v 0.1 0 -0.8
v -0.1 0.1 0.7
v 0 0.1 0.7
v 0.1 0.1 0.7
v -0.1 0.1 0.6
v 0 0.1 0.6
v 0.1 0.1 0.6
v 0.2 0.1 0.6
v 0.3 0.1 0.6
v 0.4 0.1 0.6
v 0.3 0.1 0.5
v 0.4 0.1 0.5
v 0.3 0.1 0.4
v 0.4 0.1 0.4
v 0.3 0.1 0.3
v 0.4 0.1 0.3
v 0.3 0.1 0.2
v 0.4 0.1 0.2
v 0.1 0.1 0.1
v 0.2 0.1 0.1
v 0.3 0.1 0.1
v 0.4 0.1 0.1
v -0.1 0.1 -0.2
v 0 0.1 -0.2
v 0.1 0.1 -0.2
v -0.2 0.1 -0.3
v -0.1 0.1 -0.3
v 0 0.1 -0.3
v 0.1 0.1 -0.3
v 0.2 0.1 -0.3
v -0.3 0.1 -0.4
v -0.2 0.1 -0.4
v -0.1 0.1 -0.4
v 0 0.1 -0.4
v 0.1 0.1 -0.4
v 0.2 0.1 -0.4
v 0.3 0.1 -0.4
v 0.2 0.1 -0.5
v 0.3 0.1 -0.5
v -0.3 0.1 -0.6
v -0.2 0.1 -0.6
v -0.1 0.1 -0.6
v 0 0.1 -0.6
v 0.1 0.1 -0.6
v 0.2 0.1 -0.6
v 0.3 0.1 -0.6
v -0.2 0.1 -0.7
v -0.1 0.1 -0.7
v 0 0.1 -0.7
v 0.1 0.1 -0.7
v 0.2 0.1 -0.7
v -0.1 0.1 -0.8
v 0 0.1 -0.8
v 0.1 0.1 -0.8

# faces
f 3/4/1 2/4/1 1/4/1
f 4/4/1 2/4/1 3/4/1
f 9/4/1 6/4/1 5/4/1
f 10/4/1 6/4/1 9/4/1
f 11/4/1 8/4/1 7/4/1
f 12/4/1 8/4/1 11/4/1
f 19/4/1 14/4/1 13/4/1
f 20/3/1 15/3/1 14/3/1
f 20/4/1 14/4/1 19/4/1
f 21/4/1 16/4/1 15/4/1
f 21/3/1 15/3/1 20/3/1
f 22/4/1 16/4/1 21/4/1
f 23/5/1 18/5/1 17/5/1
f 24/5/1 18/5/1 23/5/1
f 27/1/1 26/1/1 25/1/1
f 28/1/1 26/1/1 27/1/1
f 29/3/2 30/3/2 31/3/2
f 31/3/2 30/3/2 32/3/2
f 33/3/2 34/3/2 40/3/2
f 40/3/2 34/3/2 41/3/2
f 35/1/2 36/1/2 42/1/2
f 36/3/2 37/3/2 43/3/2
f 42/1/2 36/1/2 43/1/2
f 43/3/2 37/3/2 44/3/2
f 38/3/2 39/3/2 45/3/2
f 45/3/2 39/3/2 46/3/2
f 47/3/2 48/3/2 51/3/2
f 51/3/2 48/3/2 52/3/2
f 49/3/2 50/3/2 53/3/2
f 53/3/2 50/3/2 54/3/2
f 55/1/2 56/1/2 62/1/2
f 62/1/2 56/1/2 63/1/2
f 57/1/2 58/1/2 64/1/2
f 64/1/2 58/1/2 65/1/2
f 59/3/2 60/3/2 66/3/2
f 60/2/2 61/2/2 67/2/2
f 66/3/2 60/3/2 67/3/2
f 67/2/2 61/2/2 68/2/2
f 69/3/2 70/3/2 75/3/2
f 75/3/2 70/3/2 76/3/2
f 71/3/2 72/3/2 77/3/2
f 77/3/2 72/3/2 78/3/2
f 73/3/2 74/3/2 79/3/2
f 79/3/2 74/3/2 80/3/2
f 83/4/3 82/4/3 81/4/3
f 84/4/3 82/4/3 83/4/3
f 85/3/3 84/3/3 83/3/3
f 86/3/3 84/3/3 85/3/3
f 89/3/3 88/3/3 87/3/3
f 90/3/3 88/3/3 89/3/3
f 91/1/3 90/1/3 89/1/3
f 92/1/3 90/1/3 91/1/3
f 93/3/3 92/3/3 91/3/3
f 94/3/3 92/3/3 93/3/3
f 97/3/3 96/3/3 95/3/3
f 98/3/3 96/3/3 97/3/3
f 101/3/3 100/3/3 99/3/3
f 102/3/3 100/3/3 101/3/3
f 105/4/3 104/4/3 103/4/3
f 106/4/3 104/4/3 105/4/3
f 109/3/3 108/3/3 107/3/3
f 110/3/3 108/3/3 109/3/3
f 113/4/3 112/4/3 111/4/3
f 114/4/3 112/4/3 113/4/3
f 117/3/3 116/3/3 115/3/3
f 118/3/3 116/3/3 117/3/3
f 121/3/3 120/3/3 119/3/3
f 122/3/3 120/3/3 121/3/3
f 123/1/3 122/1/3 121/1/3
f 124/1/3 122/1/3 123/1/3
f 125/3/4 126/3/4 127/3/4
f 127/3/4 126/3/4 128/3/4
f 129/3/4 130/3/4 131/3/4
f 131/3/4 130/3/4 132/3/4
f 133/3/4 134/3/4 135/3/4
f 135/3/4 134/3/4 136/3/4
f 135/1/4 136/1/4 137/1/4
f 137/1/4 136/1/4 138/1/4
f 137/3/4 138/3/4 139/3/4
f 139/3/4 138/3/4 140/3/4
f 141/3/4 142/3/4 143/3/4
f 143/3/4 142/3/4 144/3/4
f 143/1/4 144/1/4 145/1/4
f 145/1/4 144/1/4 146/1/4
f 147/4/4 148/4/4 149/4/4
f 149/4/4 148/4/4 150/4/4
f 151/2/4 152/2/4 153/2/4
f 153/2/4 152/2/4 154/2/4
f 155/4/4 156/4/4 157/4/4
f 157/4/4 156/4/4 158/4/4
f 159/3/4 160/3/4 161/3/4
f 161/3/4 160/3/4 162/3/4
f 163/5/4 164/5/4 165/5/4
f 165/5/4 164/5/4 166/5/4
f 165/3/4 166/3/4 167/3/4
f 167/3/4 166/3/4 168/3/4
f 172/4/5 170/4/5 169/4/5
f 173/3/5 171/3/5 170/3/5
f 173/4/5 170/4/5 172/4/5
f 174/3/5 171/3/5 173/3/5
f 178/1/5 176/1/5 175/1/5
f 178/3/5 177/3/5 176/3/5
f 179/3/5 177/3/5 178/3/5
f 180/1/5 178/1/5 175/1/5
f 182/1/5 180/1/5 175/1/5
f 182/3/5 181/3/5 180/3/5
f 183/3/5 181/3/5 182/3/5
f 184/1/5 182/1/5 175/1/5
f 186/1/5 174/1/5 173/1/5
f 186/3/5 175/3/5 174/3/5
f 187/1/5 184/1/5 175/1/5
f 187/3/5 175/3/5 186/3/5
f 188/3/5 185/3/5 184/3/5
f 188/1/5 184/1/5 187/1/5
f 189/3/5 185/3/5 188/3/5
f 190/3/5 173/3/5 172/3/5
f 191/1/5 186/1/5 173/1/5
f 191/3/5 173/3/5 190/3/5
f 192/1/5 186/1/5 191/1/5
f 194/4/5 191/4/5 190/4/5
f 195/3/5 192/3/5 191/3/5
f 195/4/5 191/4/5 194/4/5
f 196/3/5 192/3/5 195/3/5
f 199/4/5 194/4/5 193/4/5
f 200/3/5 195/3/5 194/3/5
f 200/4/5 194/4/5 199/4/5
f 201/1/5 196/1/5 195/1/5
f 201/3/5 195/3/5 200/3/5
f 202/3/5 197/3/5 196/3/5
f 202/1/5 196/1/5 201/1/5
f 203/3/5 197/3/5 202/3/5
f 205/3/5 204/3/5 203/3/5
f 205/1/5 203/1/5 202/1/5
f 206/3/5 204/3/5 205/3/5
f 207/4/5 199/4/5 198/4/5
f 208/3/5 200/3/5 199/3/5
f 208/4/5 199/4/5 207/4/5
f 209/3/5 200/3/5 208/3/5
f 211/1/5 205/1/5 202/1/5
f 212/2/5 206/2/5 205/2/5
f 212/1/5 205/1/5 211/1/5
f 213/2/5 206/2/5 212/2/5
f 214/4/5 209/4/5 208/4/5
f 215/3/5 210/3/5 209/3/5
f 215/4/5 209/4/5 214/4/5
f 216/1/5 211/1/5 210/1/5
f 216/3/5 210/3/5 215/3/5
f 217/3/5 212/3/5 211/3/5
f 217/1/5 211/1/5 216/1/5
f 218/3/5 212/3/5 217/3/5
f 219/5/5 216/5/5 215/5/5
f 220/3/5 217/3/5 216/3/5
f 220/5/5 216/5/5 219/5/5
f 221/3/5 217/3/5 220/3/5
f 222/4/6 223/4/6 225/4/6
f 223/3/6 224/3/6 226/3/6
f 225/4/6 223/4/6 226/4/6
f 226/3/6 224/3/6 227/3/6
f 228/1/6 229/1/6 231/1/6
f 229/3/6 230/3/6 231/3/6
f 231/3/6 230/3/6 232/3/6
f 228/1/6 231/1/6 233/1/6
f 228/1/6 233/1/6 235/1/6
f 233/3/6 234/3/6 235/3/6
f 235/3/6 234/3/6 236/3/6
f 228/1/6 235/1/6 237/1/6
f 226/1/6 227/1/6 239/1/6
f 227/3/6 228/3/6 239/3/6
f 228/1/6 237/1/6 240/1/6
f 239/3/6 228/3/6 240/3/6
f 237/3/6 238/3/6 241/3/6
f 240/1/6 237/1/6 241/1/6
f 241/3/6 238/3/6 242/3/6
f 225/3/6 226/3/6 243/3/6
f 226/1/6 239/1/6 244/1/6
f 243/3/6 226/3/6 244/3/6
f 244/1/6 239/1/6 245/1/6
f 243/4/6 244/4/6 247/4/6
f 244/3/6 245/3/6 248/3/6
f 247/4/6 244/4/6 248/4/6
f 248/3/6 245/3/6 249/3/6
f 246/4/6 247/4/6 252/4/6
f 247/3/6 248/3/6 253/3/6
f 252/4/6 247/4/6 253/4/6
f 248/1/6 249/1/6 254/1/6
f 253/3/6 248/3/6 254/3/6
f 249/3/6 250/3/6 255/3/6
f 254/1/6 249/1/6 255/1/6
f 255/3/6 250/3/6 256/3/6
f 256/3/6 257/3/6 258/3/6
f 255/1/6 256/1/6 258/1/6
f 258/3/6 257/3/6 259/3/6
f 251/4/6 252/4/6 260/4/6
f 252/3/6 253/3/6 261/3/6
f 260/4/6 252/4/6 261/4/6
f 261/3/6 253/3/6 262/3/6
f 255/1/6 258/1/6 264/1/6
f 258/2/6 259/2/6 265/2/6
f 264/1/6 258/1/6 265/1/6
f 265/2/6 259/2/6 266/2/6
f 261/4/6 262/4/6 267/4/6
f 262/3/6 263/3/6 268/3/6
f 267/4/6 262/4/6 268/4/6
f 263/1/6 264/1/6 269/1/6
f 268/3/6 263/3/6 269/3/6
f 264/3/6 265/3/6 270/3/6
f 269/1/6 264/1/6 270/1/6
f 270/3/6 265/3/6 271/3/6
f 268/5/6 269/5/6 272/5/6
f 269/3/6 270/3/6 273/3/6
f 272/5/6 269/5/6 273/5/6
f 273/3/6 270/3/6 274/3/6
