# MagicaVoxel @ Ephtracy

# group
o SpecialKeySprite

# material
mtllib SpecialKey.mtl
usemtl palette

# normals
vn -1 0 0
vn 1 0 0
vn 0 0 1
vn 0 0 -1
vn 0 -1 0
vn 0 1 0

# texcoords
vt 0.00976562 0.5
vt 0.0371094 0.5
vt 0.0683594 0.5
vt 0.0917969 0.5
vt 0.232422 0.5

# verts
v -0.6 0 -0.2
v -0.6 0 -0.4
v -0.6 0.1 -0.2
v -0.6 0.1 -0.4
v -0.5 0 -0.1
v -0.5 0 -0.2
v -0.5 0 -0.4
v -0.5 0 -0.5
v -0.5 0.1 -0.1
v -0.5 0.1 -0.2
v -0.5 0.1 -0.4
v -0.5 0.1 -0.5
v -0.4 0 0
v -0.4 0 -0.1
v -0.4 0 -0.5
v -0.4 0 -0.6
v -0.4 0.1 0
v -0.4 0.1 -0.1
v -0.4 0.1 -0.5
v -0.4 0.1 -0.6
v -0.3 0 -0.6
v -0.3 0 -0.7
v -0.3 0.1 -0.6
v -0.3 0.1 -0.7
v -0.2 0 -0.2
v -0.2 0 -0.3
v -0.2 0 -0.4
v -0.2 0 -0.7
v -0.2 0 -0.8
v -0.2 0.1 -0.2
v -0.2 0.1 -0.3
v -0.2 0.1 -0.4
v -0.2 0.1 -0.7
v -0.2 0.1 -0.8
v -0.1 0 0.8
v -0.1 0 0.7
v -0.1 0 -0.1
v -0.1 0 -0.4
v -0.1 0 -0.5
v -0.1 0.1 0.8
v -0.1 0.1 0.7
v -0.1 0.1 -0.1
v -0.1 0.1 -0.4
v -0.1 0.1 -0.5
v 0.1 0 -0.5
v 0.1 0 -0.6
v 0.1 0 -0.7
v 0.1 0.1 -0.5
v 0.1 0.1 -0.6
v 0.1 0.1 -0.7
v 0.2 0 0
v 0.2 0 -0.1
v 0.2 0 -0.4
v 0.2 0 -0.5
v 0.2 0.1 0
v 0.2 0.1 -0.1
v 0.2 0.1 -0.4
v 0.2 0.1 -0.5
v 0.4 0 -0.2
v 0.4 0 -0.3
v 0.4 0 -0.4
v 0.4 0.1 -0.2
v 0.4 0.1 -0.3
v 0.4 0.1 -0.4
v -0.4 0 -0.2
v -0.4 0 -0.3
v -0.4 0 -0.4
v -0.4 0.1 -0.2
v -0.4 0.1 -0.3
v -0.4 0.1 -0.4
v -0.2 0 0
v -0.2 0 -0.1
v -0.2 0 -0.4
v -0.2 0 -0.5
v -0.2 0.1 0
v -0.2 0.1 -0.1
v -0.2 0.1 -0.4
v -0.2 0.1 -0.5
v -0.1 0 -0.5
v -0.1 0 -0.6
v -0.1 0 -0.7
v -0.1 0.1 -0.5
v -0.1 0.1 -0.6
v -0.1 0.1 -0.7
v 0.1 0 0.8
v 0.1 0 0.7
v 0.1 0 0.2
v 0.1 0 -0.1
v 0.1 0 -0.4
v 0.1 0 -0.5
v 0.1 0.1 0.8
v 0.1 0.1 0.7
v 0.1 0.1 0.2
v 0.1 0.1 -0.1
v 0.1 0.1 -0.4
v 0.1 0.1 -0.5
v 0.2 0 -0.2
v 0.2 0 -0.3
v 0.2 0 -0.4
v 0.2 0 -0.7
v 0.2 0 -0.8
v 0.2 0.1 -0.2
v 0.2 0.1 -0.3
v 0.2 0.1 -0.4
v 0.2 0.1 -0.7
v 0.2 0.1 -0.8
v 0.3 0 0.6
v 0.3 0 0.5
v 0.3 0 0.4
v 0.3 0 0.3
v 0.3 0 -0.6
v 0.3 0 -0.7
v 0.3 0.1 0.6
v 0.3 0.1 0.5
v 0.3 0.1 0.4
v 0.3 0.1 0.3
v 0.3 0.1 -0.6
v 0.3 0.1 -0.7
v 0.4 0 0.7
v 0.4 0 0.6
v 0.4 0 0.5
v 0.4 0 0.4
v 0.4 0 0.3
v 0.4 0 0.2
v 0.4 0 0
v 0.4 0 -0.1
v 0.4 0 -0.5
v 0.4 0 -0.6
v 0.4 0.1 0.7
v 0.4 0.1 0.6
v 0.4 0.1 0.5
v 0.4 0.1 0.4
v 0.4 0.1 0.3
v 0.4 0.1 0.2
v 0.4 0.1 0
v 0.4 0.1 -0.1
v 0.4 0.1 -0.5
v 0.4 0.1 -0.6
v 0.5 0 -0.1
v 0.5 0 -0.2
v 0.5 0 -0.4
v 0.5 0 -0.5
v 0.5 0.1 -0.1
v 0.5 0.1 -0.2
v 0.5 0.1 -0.4
v 0.5 0.1 -0.5
v 0.6 0 -0.2
v 0.6 0 -0.4
v 0.6 0.1 -0.2
v 0.6 0.1 -0.4
v -0.1 0 0.8
v -0.1 0.1 0.8
v -5.96046e-08 0 0.8
v -5.96046e-08 0.1 0.8
v 0.1 0 0.8
v 0.1 0.1 0.8
v 0.1 0 0.7
v 0.1 0.1 0.7
v 0.2 0 0.7
v 0.2 0.1 0.7
v 0.3 0 0.7
v 0.3 0.1 0.7
v 0.4 0 0.7
v 0.4 0.1 0.7
v 0.3 0 0.5
v 0.3 0.1 0.5
v 0.4 0 0.5
v 0.4 0.1 0.5
v 0.3 0 0.3
v 0.3 0.1 0.3
v 0.4 0 0.3
v 0.4 0.1 0.3
v -0.4 0 0
v -0.4 0.1 0
v -0.2 0 0
v -0.2 0.1 0
v 0.2 0 0
v 0.2 0.1 0
v 0.3 0 0
v 0.3 0.1 0
v 0.4 0 0
v 0.4 0.1 0
v -0.5 0 -0.1
v -0.5 0.1 -0.1
v -0.4 0 -0.1
v -0.4 0.1 -0.1
v -0.2 0 -0.1
v -0.2 0.1 -0.1
v -0.1 0 -0.1
v -0.1 0.1 -0.1
v 0.1 0 -0.1
v 0.1 0.1 -0.1
v 0.2 0 -0.1
v 0.2 0.1 -0.1
v 0.4 0 -0.1
v 0.4 0.1 -0.1
v 0.5 0 -0.1
v 0.5 0.1 -0.1
v -0.6 0 -0.2
v -0.6 0.1 -0.2
v -0.5 0 -0.2
v -0.5 0.1 -0.2
v 0.5 0 -0.2
v 0.5 0.1 -0.2
v 0.6 0 -0.2
v 0.6 0.1 -0.2
v -0.4 0 -0.4
v -0.4 0.1 -0.4
v -0.3 0 -0.4
v -0.3 0.1 -0.4
v -0.2 0 -0.4
v -0.2 0.1 -0.4
v 0.2 0 -0.4
v 0.2 0.1 -0.4
v 0.3 0 -0.4
v 0.3 0.1 -0.4
v 0.4 0 -0.4
v 0.4 0.1 -0.4
v -0.2 0 -0.5
v -0.2 0.1 -0.5
v -0.1 0 -0.5
v -0.1 0.1 -0.5
v 0.1 0 -0.5
v 0.1 0.1 -0.5
v 0.2 0 -0.5
v 0.2 0.1 -0.5
v -0.1 0 -0.7
v -0.1 0.1 -0.7
v -5.96046e-08 0 -0.7
v -5.96046e-08 0.1 -0.7
v 0.1 0 -0.7
v 0.1 0.1 -0.7
v 0.3 0 0.6
v 0.3 0.1 0.6
v 0.4 0 0.6
v 0.4 0.1 0.6
v 0.3 0 0.4
v 0.3 0.1 0.4
v 0.4 0 0.4
v 0.4 0.1 0.4
v 0.1 0 0.2
v 0.1 0.1 0.2
v 0.2 0 0.2
v 0.2 0.1 0.2
v 0.3 0 0.2
v 0.3 0.1 0.2
v 0.4 0 0.2
v 0.4 0.1 0.2
v -0.4 0 -0.2
v -0.4 0.1 -0.2
v -0.3 0 -0.2
v -0.3 0.1 -0.2
v -0.2 0 -0.2
v -0.2 0.1 -0.2
v 0.2 0 -0.2
v 0.2 0.1 -0.2
v 0.3 0 -0.2
v 0.3 0.1 -0.2
v 0.4 0 -0.2
v 0.4 0.1 -0.2
v -0.6 0 -0.4
v -0.6 0.1 -0.4
v -0.5 0 -0.4
v -0.5 0.1 -0.4
v -0.2 0 -0.4
v -0.2 0.1 -0.4
v -0.1 0 -0.4
v -0.1 0.1 -0.4
v 0.1 0 -0.4
v 0.1 0.1 -0.4
v 0.2 0 -0.4
v 0.2 0.1 -0.4
v 0.5 0 -0.4
v 0.5 0.1 -0.4
v 0.6 0 -0.4
v 0.6 0.1 -0.4
v -0.5 0 -0.5
v -0.5 0.1 -0.5
v -0.4 0 -0.5
v -0.4 0.1 -0.5
v -0.1 0 -0.5
v -0.1 0.1 -0.5
v -5.96046e-08 0 -0.5
v -5.96046e-08 0.1 -0.5
v 0.1 0 -0.5
v 0.1 0.1 -0.5
v 0.4 0 -0.5
v 0.4 0.1 -0.5
v 0.5 0 -0.5
v 0.5 0.1 -0.5
v -0.4 0 -0.6
v -0.4 0.1 -0.6
v -0.3 0 -0.6
v -0.3 0.1 -0.6
v 0.3 0 -0.6
v 0.3 0.1 -0.6
v 0.4 0 -0.6
v 0.4 0.1 -0.6
v -0.3 0 -0.7
v -0.3 0.1 -0.7
v -0.2 0 -0.7
v -0.2 0.1 -0.7
v 0.2 0 -0.7
v 0.2 0.1 -0.7
v 0.3 0 -0.7
v 0.3 0.1 -0.7
v -0.2 0 -0.8
v -0.2 0.1 -0.8
v -0.1 0 -0.8
v -0.1 0.1 -0.8
v -5.96046e-08 0 -0.8
v -5.96046e-08 0.1 -0.8
v 0.1 0 -0.8
v 0.1 0.1 -0.8
v 0.2 0 -0.8
v 0.2 0.1 -0.8
v -0.1 0 0.8
v -5.96046e-08 0 0.8
v 0.1 0 0.8
v -0.1 0 0.7
v -5.96046e-08 0 0.7
v 0.1 0 0.7
v 0.2 0 0.7
v 0.3 0 0.7
v 0.4 0 0.7
v 0.3 0 0.6
v 0.4 0 0.6
v 0.3 0 0.5
v 0.4 0 0.5
v 0.3 0 0.4
v 0.4 0 0.4
v 0.3 0 0.3
v 0.4 0 0.3
v 0.1 0 0.2
v 0.2 0 0.2
v 0.3 0 0.2
v 0.4 0 0.2
v -0.4 0 0
v -0.2 0 0
v 0.2 0 0
v 0.3 0 0
v 0.4 0 0
v -0.5 0 -0.1
v -0.4 0 -0.1
v -0.3 0 -0.1
v -0.2 0 -0.1
v -0.1 0 -0.1
v -5.96046e-08 0 -0.1
v 0.1 0 -0.1
v 0.2 0 -0.1
v 0.3 0 -0.1
v 0.4 0 -0.1
v 0.5 0 -0.1
v -0.6 0 -0.2
v -0.5 0 -0.2
v -0.4 0 -0.2
v -0.3 0 -0.2
v -0.2 0 -0.2
v -0.1 0 -0.2
v -5.96046e-08 0 -0.2
v 0.1 0 -0.2
v 0.2 0 -0.2
v 0.3 0 -0.2
v 0.4 0 -0.2
v 0.5 0 -0.2
v 0.6 0 -0.2
v -0.5 0 -0.3
v -0.4 0 -0.3
v -0.2 0 -0.3
v -0.1 0 -0.3
v -5.96046e-08 0 -0.3
v 0.1 0 -0.3
v 0.2 0 -0.3
v 0.4 0 -0.3
v 0.5 0 -0.3
v -0.6 0 -0.4
v -0.5 0 -0.4
v -0.4 0 -0.4
v -0.3 0 -0.4
v -0.2 0 -0.4
v -0.1 0 -0.4
v -5.96046e-08 0 -0.4
v 0.1 0 -0.4
v 0.2 0 -0.4
v 0.3 0 -0.4
v 0.4 0 -0.4
v 0.5 0 -0.4
v 0.6 0 -0.4
v -0.5 0 -0.5
v -0.4 0 -0.5
v -0.3 0 -0.5
v -0.2 0 -0.5
v -0.1 0 -0.5
v -5.96046e-08 0 -0.5
v 0.1 0 -0.5
v 0.2 0 -0.5
v 0.3 0 -0.5
v 0.4 0 -0.5
v 0.5 0 -0.5
v -0.4 0 -0.6
v -0.3 0 -0.6
v -0.2 0 -0.6
v -0.1 0 -0.6
v 0.1 0 -0.6
v 0.2 0 -0.6
v 0.3 0 -0.6
v 0.4 0 -0.6
v -0.3 0 -0.7
v -0.2 0 -0.7
v -0.1 0 -0.7
v -5.96046e-08 0 -0.7
v 0.1 0 -0.7
v 0.2 0 -0.7
v 0.3 0 -0.7
v -0.2 0 -0.8
v -0.1 0 -0.8
v -5.96046e-08 0 -0.8
v 0.1 0 -0.8
v 0.2 0 -0.8
v -0.1 0.1 0.8
v -5.96046e-08 0.1 0.8
v 0.1 0.1 0.8
v -0.1 0.1 0.7
v -5.96046e-08 0.1 0.7
v 0.1 0.1 0.7
v 0.2 0.1 0.7
v 0.3 0.1 0.7
v 0.4 0.1 0.7
v 0.3 0.1 0.6
v 0.4 0.1 0.6
v 0.3 0.1 0.5
v 0.4 0.1 0.5
v 0.3 0.1 0.4
v 0.4 0.1 0.4
v 0.3 0.1 0.3
v 0.4 0.1 0.3
v 0.1 0.1 0.2
v 0.2 0.1 0.2
v 0.3 0.1 0.2
v 0.4 0.1 0.2
v -0.4 0.1 0
v -0.2 0.1 0
v 0.2 0.1 0
v 0.3 0.1 0
v 0.4 0.1 0
v -0.5 0.1 -0.1
v -0.4 0.1 -0.1
v -0.3 0.1 -0.1
v -0.2 0.1 -0.1
v -0.1 0.1 -0.1
v -5.96046e-08 0.1 -0.1
v 0.1 0.1 -0.1
v 0.2 0.1 -0.1
v 0.3 0.1 -0.1
v 0.4 0.1 -0.1
v 0.5 0.1 -0.1
v -0.6 0.1 -0.2
v -0.5 0.1 -0.2
v -0.4 0.1 -0.2
v -0.3 0.1 -0.2
v -0.2 0.1 -0.2
v -0.1 0.1 -0.2
v -5.96046e-08 0.1 -0.2
v 0.1 0.1 -0.2
v 0.2 0.1 -0.2
v 0.3 0.1 -0.2
v 0.4 0.1 -0.2
v 0.5 0.1 -0.2
v 0.6 0.1 -0.2
v -0.5 0.1 -0.3
v -0.4 0.1 -0.3
v -0.2 0.1 -0.3
v -0.1 0.1 -0.3
v -5.96046e-08 0.1 -0.3
v 0.1 0.1 -0.3
v 0.2 0.1 -0.3
v 0.4 0.1 -0.3
v 0.5 0.1 -0.3
v -0.6 0.1 -0.4
v -0.5 0.1 -0.4
v -0.4 0.1 -0.4
v -0.3 0.1 -0.4
v -0.2 0.1 -0.4
v -0.1 0.1 -0.4
v -5.96046e-08 0.1 -0.4
v 0.1 0.1 -0.4
v 0.2 0.1 -0.4
v 0.3 0.1 -0.4
v 0.4 0.1 -0.4
v 0.5 0.1 -0.4
v 0.6 0.1 -0.4
v -0.5 0.1 -0.5
v -0.4 0.1 -0.5
v -0.3 0.1 -0.5
v -0.2 0.1 -0.5
v -0.1 0.1 -0.5
v -5.96046e-08 0.1 -0.5
v 0.1 0.1 -0.5
v 0.2 0.1 -0.5
v 0.3 0.1 -0.5
v 0.4 0.1 -0.5
v 0.5 0.1 -0.5
v -0.4 0.1 -0.6
v -0.3 0.1 -0.6
v -0.2 0.1 -0.6
v -0.1 0.1 -0.6
v 0.1 0.1 -0.6
v 0.2 0.1 -0.6
v 0.3 0.1 -0.6
v 0.4 0.1 -0.6
v -0.3 0.1 -0.7
v -0.2 0.1 -0.7
v -0.1 0.1 -0.7
v -5.96046e-08 0.1 -0.7
v 0.1 0.1 -0.7
v 0.2 0.1 -0.7
v 0.3 0.1 -0.7
v -0.2 0.1 -0.8
v -0.1 0.1 -0.8
v -5.96046e-08 0.1 -0.8
v 0.1 0.1 -0.8
v 0.2 0.1 -0.8

# faces
f 3/3/1 2/3/1 1/3/1
f 4/3/1 2/3/1 3/3/1
f 9/3/1 6/3/1 5/3/1
f 10/3/1 6/3/1 9/3/1
f 11/3/1 8/3/1 7/3/1
f 12/3/1 8/3/1 11/3/1
f 17/3/1 14/3/1 13/3/1
f 18/3/1 14/3/1 17/3/1
f 19/3/1 16/3/1 15/3/1
f 20/3/1 16/3/1 19/3/1
f 23/3/1 22/3/1 21/3/1
f 24/3/1 22/3/1 23/3/1
f 30/4/1 26/4/1 25/4/1
f 31/3/1 27/3/1 26/3/1
f 31/4/1 26/4/1 30/4/1
f 32/3/1 27/3/1 31/3/1
f 33/3/1 29/3/1 28/3/1
f 34/3/1 29/3/1 33/3/1
f 40/5/1 36/5/1 35/5/1
f 41/3/1 37/3/1 36/3/1
f 41/5/1 36/5/1 40/5/1
f 42/3/1 37/3/1 41/3/1
f 43/4/1 39/4/1 38/4/1
f 44/4/1 39/4/1 43/4/1
f 48/2/1 46/2/1 45/2/1
f 49/1/1 47/1/1 46/1/1
f 49/2/1 46/2/1 48/2/1
f 50/1/1 47/1/1 49/1/1
f 55/3/1 52/3/1 51/3/1
f 56/3/1 52/3/1 55/3/1
f 57/2/1 54/2/1 53/2/1
f 58/2/1 54/2/1 57/2/1
f 62/2/1 60/2/1 59/2/1
f 63/1/1 61/1/1 60/1/1
f 63/2/1 60/2/1 62/2/1
f 64/1/1 61/1/1 63/1/1
f 65/3/2 66/3/2 68/3/2
f 66/2/2 67/2/2 69/2/2
f 68/3/2 66/3/2 69/3/2
f 69/2/2 67/2/2 70/2/2
f 71/3/2 72/3/2 75/3/2
f 75/3/2 72/3/2 76/3/2
f 73/1/2 74/1/2 77/1/2
f 77/1/2 74/1/2 78/1/2
f 79/4/2 80/4/2 82/4/2
f 80/3/2 81/3/2 83/3/2
f 82/4/2 80/4/2 83/4/2
f 83/3/2 81/3/2 84/3/2
f 85/3/2 86/3/2 91/3/2
f 91/3/2 86/3/2 92/3/2
f 87/2/2 88/2/2 93/2/2
f 93/2/2 88/2/2 94/2/2
f 89/3/2 90/3/2 95/3/2
f 95/3/2 90/3/2 96/3/2
f 97/4/2 98/4/2 102/4/2
f 98/3/2 99/3/2 103/3/2
f 102/4/2 98/4/2 103/4/2
f 103/3/2 99/3/2 104/3/2
f 100/3/2 101/3/2 105/3/2
f 105/3/2 101/3/2 106/3/2
f 107/2/2 108/2/2 113/2/2
f 113/2/2 108/2/2 114/2/2
f 109/2/2 110/2/2 115/2/2
f 115/2/2 110/2/2 116/2/2
f 111/3/2 112/3/2 117/3/2
f 117/3/2 112/3/2 118/3/2
f 119/3/2 120/3/2 129/3/2
f 129/3/2 120/3/2 130/3/2
f 121/3/2 122/3/2 131/3/2
f 131/3/2 122/3/2 132/3/2
f 123/3/2 124/3/2 133/3/2
f 133/3/2 124/3/2 134/3/2
f 125/4/2 126/4/2 135/4/2
f 135/4/2 126/4/2 136/4/2
f 127/3/2 128/3/2 137/3/2
f 137/3/2 128/3/2 138/3/2
f 139/4/2 140/4/2 143/4/2
f 143/4/2 140/4/2 144/4/2
f 141/3/2 142/3/2 145/3/2
f 145/3/2 142/3/2 146/3/2
f 147/3/2 148/3/2 149/3/2
f 149/3/2 148/3/2 150/3/2
f 153/5/3 152/5/3 151/5/3
f 154/5/3 152/5/3 153/5/3
f 155/3/3 154/3/3 153/3/3
f 156/3/3 154/3/3 155/3/3
f 159/3/3 158/3/3 157/3/3
f 160/3/3 158/3/3 159/3/3
f 161/2/3 160/2/3 159/2/3
f 162/2/3 160/2/3 161/2/3
f 163/3/3 162/3/3 161/3/3
f 164/3/3 162/3/3 163/3/3
f 167/3/3 166/3/3 165/3/3
f 168/3/3 166/3/3 167/3/3
f 171/3/3 170/3/3 169/3/3
f 172/3/3 170/3/3 171/3/3
f 175/3/3 174/3/3 173/3/3
f 176/3/3 174/3/3 175/3/3
f 179/3/3 178/3/3 177/3/3
f 180/3/3 178/3/3 179/3/3
f 181/4/3 180/4/3 179/4/3
f 182/4/3 180/4/3 181/4/3
f 185/3/3 184/3/3 183/3/3
f 186/3/3 184/3/3 185/3/3
f 189/3/3 188/3/3 187/3/3
f 190/3/3 188/3/3 189/3/3
f 193/3/3 192/3/3 191/3/3
f 194/3/3 192/3/3 193/3/3
f 197/4/3 196/4/3 195/4/3
f 198/4/3 196/4/3 197/4/3
f 201/3/3 200/3/3 199/3/3
f 202/3/3 200/3/3 201/3/3
f 205/3/3 204/3/3 203/3/3
f 206/3/3 204/3/3 205/3/3
f 209/2/3 208/2/3 207/2/3
f 210/2/3 208/2/3 209/2/3
f 211/1/3 210/1/3 209/1/3
f 212/1/3 210/1/3 211/1/3
f 215/2/3 214/2/3 213/2/3
f 216/2/3 214/2/3 215/2/3
f 217/1/3 216/1/3 215/1/3
f 218/1/3 216/1/3 217/1/3
f 221/4/3 220/4/3 219/4/3
f 222/4/3 220/4/3 221/4/3
f 225/2/3 224/2/3 223/2/3
f 226/2/3 224/2/3 225/2/3
f 229/2/3 228/2/3 227/2/3
f 230/2/3 228/2/3 229/2/3
f 231/1/3 230/1/3 229/1/3
f 232/1/3 230/1/3 231/1/3
f 233/3/4 234/3/4 235/3/4
f 235/3/4 234/3/4 236/3/4
f 237/3/4 238/3/4 239/3/4
f 239/3/4 238/3/4 240/3/4
f 241/3/4 242/3/4 243/3/4
f 243/3/4 242/3/4 244/3/4
f 243/2/4 244/2/4 245/2/4
f 245/2/4 244/2/4 246/2/4
f 245/3/4 246/3/4 247/3/4
f 247/3/4 246/3/4 248/3/4
f 249/3/4 250/3/4 251/3/4
f 251/3/4 250/3/4 252/3/4
f 251/4/4 252/4/4 253/4/4
f 253/4/4 252/4/4 254/4/4
f 255/4/4 256/4/4 257/4/4
f 257/4/4 256/4/4 258/4/4
f 257/3/4 258/3/4 259/3/4
f 259/3/4 258/3/4 260/3/4
f 261/3/4 262/3/4 263/3/4
f 263/3/4 262/3/4 264/3/4
f 265/3/4 266/3/4 267/3/4
f 267/3/4 266/3/4 268/3/4
f 269/3/4 270/3/4 271/3/4
f 271/3/4 270/3/4 272/3/4
f 273/3/4 274/3/4 275/3/4
f 275/3/4 274/3/4 276/3/4
f 277/3/4 278/3/4 279/3/4
f 279/3/4 278/3/4 280/3/4
f 281/4/4 282/4/4 283/4/4
f 283/4/4 282/4/4 284/4/4
f 283/3/4 284/3/4 285/3/4
f 285/3/4 284/3/4 286/3/4
f 287/3/4 288/3/4 289/3/4
f 289/3/4 288/3/4 290/3/4
f 291/3/4 292/3/4 293/3/4
f 293/3/4 292/3/4 294/3/4
f 295/3/4 296/3/4 297/3/4
f 297/3/4 296/3/4 298/3/4
f 299/3/4 300/3/4 301/3/4
f 301/3/4 300/3/4 302/3/4
f 303/3/4 304/3/4 305/3/4
f 305/3/4 304/3/4 306/3/4
f 307/3/4 308/3/4 309/3/4
f 309/3/4 308/3/4 310/3/4
f 309/2/4 310/2/4 311/2/4
f 311/2/4 310/2/4 312/2/4
f 311/1/4 312/1/4 313/1/4
f 313/1/4 312/1/4 314/1/4
f 313/3/4 314/3/4 315/3/4
f 315/3/4 314/3/4 316/3/4
f 320/5/5 318/5/5 317/5/5
f 321/3/5 319/3/5 318/3/5
f 321/5/5 318/5/5 320/5/5
f 322/3/5 319/3/5 321/3/5
f 326/2/5 324/2/5 323/2/5
f 326/3/5 325/3/5 324/3/5
f 327/3/5 325/3/5 326/3/5
f 328/2/5 326/2/5 323/2/5
f 330/2/5 328/2/5 323/2/5
f 330/3/5 329/3/5 328/3/5
f 331/3/5 329/3/5 330/3/5
f 332/2/5 330/2/5 323/2/5
f 334/2/5 322/2/5 321/2/5
f 334/3/5 323/3/5 322/3/5
f 335/2/5 332/2/5 323/2/5
f 335/3/5 323/3/5 334/3/5
f 336/3/5 333/3/5 332/3/5
f 336/2/5 332/2/5 335/2/5
f 337/3/5 333/3/5 336/3/5
f 344/3/5 339/3/5 338/3/5
f 345/3/5 339/3/5 344/3/5
f 346/3/5 339/3/5 345/3/5
f 347/3/5 321/3/5 320/3/5
f 348/2/5 334/2/5 321/2/5
f 348/3/5 321/3/5 347/3/5
f 349/2/5 334/2/5 348/2/5
f 350/3/5 341/3/5 340/3/5
f 351/4/5 342/4/5 341/4/5
f 351/3/5 341/3/5 350/3/5
f 352/4/5 342/4/5 351/4/5
f 355/3/5 344/3/5 343/3/5
f 355/3/5 345/3/5 344/3/5
f 356/3/5 345/3/5 355/3/5
f 357/4/5 346/4/5 345/4/5
f 357/3/5 345/3/5 356/3/5
f 358/3/5 347/3/5 346/3/5
f 358/4/5 346/4/5 357/4/5
f 359/4/5 348/4/5 347/4/5
f 359/3/5 347/3/5 358/3/5
f 360/5/5 349/5/5 348/5/5
f 360/4/5 348/4/5 359/4/5
f 361/3/5 350/3/5 349/3/5
f 361/5/5 349/5/5 360/5/5
f 362/4/5 351/4/5 350/4/5
f 362/3/5 350/3/5 361/3/5
f 363/3/5 352/3/5 351/3/5
f 363/4/5 351/4/5 362/4/5
f 364/4/5 353/4/5 352/4/5
f 364/3/5 352/3/5 363/3/5
f 365/4/5 353/4/5 364/4/5
f 367/3/5 356/3/5 355/3/5
f 367/3/5 355/3/5 354/3/5
f 368/3/5 356/3/5 367/3/5
f 369/4/5 359/4/5 358/4/5
f 370/3/5 360/3/5 359/3/5
f 370/4/5 359/4/5 369/4/5
f 371/2/5 361/2/5 360/2/5
f 371/3/5 360/3/5 370/3/5
f 372/4/5 362/4/5 361/4/5
f 372/2/5 361/2/5 371/2/5
f 373/4/5 362/4/5 372/4/5
f 374/2/5 365/2/5 364/2/5
f 375/3/5 366/3/5 365/3/5
f 375/2/5 365/2/5 374/2/5
f 376/3/5 367/3/5 354/3/5
f 377/2/5 368/2/5 367/2/5
f 377/3/5 367/3/5 376/3/5
f 378/2/5 368/2/5 377/2/5
f 380/3/5 370/3/5 369/3/5
f 381/2/5 371/2/5 370/2/5
f 381/3/5 370/3/5 380/3/5
f 382/1/5 372/1/5 371/1/5
f 382/2/5 371/2/5 381/2/5
f 383/3/5 373/3/5 372/3/5
f 383/1/5 372/1/5 382/1/5
f 384/3/5 373/3/5 383/3/5
f 386/1/5 375/1/5 374/1/5
f 387/3/5 366/3/5 375/3/5
f 387/1/5 375/1/5 386/1/5
f 388/3/5 366/3/5 387/3/5
f 389/3/5 378/3/5 377/3/5
f 390/2/5 379/2/5 378/2/5
f 390/3/5 378/3/5 389/3/5
f 391/1/5 380/1/5 379/1/5
f 391/2/5 379/2/5 390/2/5
f 392/1/5 380/1/5 391/1/5
f 393/4/5 382/4/5 381/4/5
f 394/3/5 383/3/5 382/3/5
f 394/4/5 382/4/5 393/4/5
f 395/3/5 383/3/5 394/3/5
f 396/2/5 385/2/5 384/2/5
f 397/1/5 386/1/5 385/1/5
f 397/2/5 385/2/5 396/2/5
f 398/3/5 387/3/5 386/3/5
f 398/1/5 386/1/5 397/1/5
f 399/3/5 387/3/5 398/3/5
f 400/3/5 392/3/5 391/3/5
f 400/3/5 391/3/5 390/3/5
f 401/3/5 392/3/5 400/3/5
f 402/4/5 393/4/5 392/4/5
f 402/3/5 392/3/5 401/3/5
f 403/4/5 393/4/5 402/4/5
f 404/2/5 396/2/5 395/2/5
f 405/3/5 398/3/5 397/3/5
f 405/2/5 396/2/5 404/2/5
f 405/3/5 397/3/5 396/3/5
f 406/3/5 398/3/5 405/3/5
f 407/3/5 398/3/5 406/3/5
f 408/3/5 403/3/5 402/3/5
f 408/3/5 402/3/5 401/3/5
f 409/3/5 403/3/5 408/3/5
f 410/3/5 403/3/5 409/3/5
f 412/1/5 405/1/5 404/1/5
f 413/3/5 406/3/5 405/3/5
f 413/1/5 405/1/5 412/1/5
f 414/3/5 406/3/5 413/3/5
f 415/3/5 410/3/5 409/3/5
f 416/2/5 411/2/5 410/2/5
f 416/3/5 410/3/5 415/3/5
f 417/1/5 412/1/5 411/1/5
f 417/2/5 411/2/5 416/2/5
f 418/3/5 413/3/5 412/3/5
f 418/1/5 412/1/5 417/1/5
f 419/3/5 413/3/5 418/3/5
f 420/5/6 421/5/6 423/5/6
f 421/3/6 422/3/6 424/3/6
f 423/5/6 421/5/6 424/5/6
f 424/3/6 422/3/6 425/3/6
f 426/2/6 427/2/6 429/2/6
f 427/3/6 428/3/6 429/3/6
f 429/3/6 428/3/6 430/3/6
f 426/2/6 429/2/6 431/2/6
f 426/2/6 431/2/6 433/2/6
f 431/3/6 432/3/6 433/3/6
f 433/3/6 432/3/6 434/3/6
f 426/2/6 433/2/6 435/2/6
f 424/2/6 425/2/6 437/2/6
f 425/3/6 426/3/6 437/3/6
f 426/2/6 435/2/6 438/2/6
f 437/3/6 426/3/6 438/3/6
f 435/3/6 436/3/6 439/3/6
f 438/2/6 435/2/6 439/2/6
f 439/3/6 436/3/6 440/3/6
f 441/3/6 442/3/6 447/3/6
f 447/3/6 442/3/6 448/3/6
f 448/3/6 442/3/6 449/3/6
f 423/3/6 424/3/6 450/3/6
f 424/2/6 437/2/6 451/2/6
f 450/3/6 424/3/6 451/3/6
f 451/2/6 437/2/6 452/2/6
f 443/3/6 444/3/6 453/3/6
f 444/4/6 445/4/6 454/4/6
f 453/3/6 444/3/6 454/3/6
f 454/4/6 445/4/6 455/4/6
f 446/3/6 447/3/6 458/3/6
f 447/3/6 448/3/6 458/3/6
f 458/3/6 448/3/6 459/3/6
f 448/4/6 449/4/6 460/4/6
f 459/3/6 448/3/6 460/3/6
f 449/3/6 450/3/6 461/3/6
f 460/4/6 449/4/6 461/4/6
f 450/4/6 451/4/6 462/4/6
f 461/3/6 450/3/6 462/3/6
f 451/5/6 452/5/6 463/5/6
f 462/4/6 451/4/6 463/4/6
f 452/3/6 453/3/6 464/3/6
f 463/5/6 452/5/6 464/5/6
f 453/4/6 454/4/6 465/4/6
f 464/3/6 453/3/6 465/3/6
f 454/3/6 455/3/6 466/3/6
f 465/4/6 454/4/6 466/4/6
f 455/4/6 456/4/6 467/4/6
f 466/3/6 455/3/6 467/3/6
f 467/4/6 456/4/6 468/4/6
f 458/3/6 459/3/6 470/3/6
f 457/3/6 458/3/6 470/3/6
f 470/3/6 459/3/6 471/3/6
f 461/4/6 462/4/6 472/4/6
f 462/3/6 463/3/6 473/3/6
f 472/4/6 462/4/6 473/4/6
f 463/2/6 464/2/6 474/2/6
f 473/3/6 463/3/6 474/3/6
f 464/4/6 465/4/6 475/4/6
f 474/2/6 464/2/6 475/2/6
f 475/4/6 465/4/6 476/4/6
f 467/2/6 468/2/6 477/2/6
f 468/3/6 469/3/6 478/3/6
f 477/2/6 468/2/6 478/2/6
f 457/3/6 470/3/6 479/3/6
f 470/2/6 471/2/6 480/2/6
f 479/3/6 470/3/6 480/3/6
f 480/2/6 471/2/6 481/2/6
f 472/3/6 473/3/6 483/3/6
f 473/2/6 474/2/6 484/2/6
f 483/3/6 473/3/6 484/3/6
f 474/1/6 475/1/6 485/1/6
f 484/2/6 474/2/6 485/2/6
f 475/3/6 476/3/6 486/3/6
f 485/1/6 475/1/6 486/1/6
f 486/3/6 476/3/6 487/3/6
f 477/1/6 478/1/6 489/1/6
f 478/3/6 469/3/6 490/3/6
f 489/1/6 478/1/6 490/1/6
f 490/3/6 469/3/6 491/3/6
f 480/3/6 481/3/6 492/3/6
f 481/2/6 482/2/6 493/2/6
f 492/3/6 481/3/6 493/3/6
f 482/1/6 483/1/6 494/1/6
f 493/2/6 482/2/6 494/2/6
f 494/1/6 483/1/6 495/1/6
f 484/4/6 485/4/6 496/4/6
f 485/3/6 486/3/6 497/3/6
f 496/4/6 485/4/6 497/4/6
f 497/3/6 486/3/6 498/3/6
f 487/2/6 488/2/6 499/2/6
f 488/1/6 489/1/6 500/1/6
f 499/2/6 488/2/6 500/2/6
f 489/3/6 490/3/6 501/3/6
f 500/1/6 489/1/6 501/1/6
f 501/3/6 490/3/6 502/3/6
f 494/3/6 495/3/6 503/3/6
f 493/3/6 494/3/6 503/3/6
f 503/3/6 495/3/6 504/3/6
f 495/4/6 496/4/6 505/4/6
f 504/3/6 495/3/6 505/3/6
f 505/4/6 496/4/6 506/4/6
f 498/2/6 499/2/6 507/2/6
f 500/3/6 501/3/6 508/3/6
f 507/2/6 499/2/6 508/2/6
f 499/3/6 500/3/6 508/3/6
f 508/3/6 501/3/6 509/3/6
f 509/3/6 501/3/6 510/3/6
f 505/3/6 506/3/6 511/3/6
f 504/3/6 505/3/6 511/3/6
f 511/3/6 506/3/6 512/3/6
f 512/3/6 506/3/6 513/3/6
f 507/1/6 508/1/6 515/1/6
f 508/3/6 509/3/6 516/3/6
f 515/1/6 508/1/6 516/1/6
f 516/3/6 509/3/6 517/3/6
f 512/3/6 513/3/6 518/3/6
f 513/2/6 514/2/6 519/2/6
f 518/3/6 513/3/6 519/3/6
f 514/1/6 515/1/6 520/1/6
f 519/2/6 514/2/6 520/2/6
f 515/3/6 516/3/6 521/3/6
f 520/1/6 515/1/6 521/1/6
f 521/3/6 516/3/6 522/3/6
